<mxfile host="app.diagrams.net" modified="2023-06-12T13:23:18.086Z" agent="Mozilla/5.0 (Windows NT 10.0; Win64; x64) AppleWebKit/537.36 (KHTML, like Gecko) Chrome/114.0.0.0 Safari/537.36 Edg/114.0.1823.43" version="21.3.4" etag="vl8VbidGdwRkO1UmTtfK" type="github">
  <diagram name="Trang-1" id="H5CcnlnIAU28co34Nz0S">
    <mxGraphModel>
      <root>
        <mxCell id="0" />
        <mxCell id="1" parent="0" />
      </root>
    </mxGraphModel>
  </diagram>
</mxfile>
